<svg xmlns="http://www.w3.org/2000/svg" width="518.46" height="203.37" viewBox="0 0 518.46 203.37">
  <defs>
    <style>
      .cls-1 {
        fill: #fff;
      }

      .cls-2 {
        fill: #ed6325;
      }
    </style>
  </defs>
  <g id="Layer_2" data-name="Layer 2">
    <g id="Layer_1-2" data-name="Layer 1">
      <g>
        <g>
          <path class="cls-1" d="M25.75,202.45V186.36H7.5v16.09H0V164.06H7.5v15.78H25.75V164.06h7.43v38.39Z"/>
          <path class="cls-1" d="M68.58,203.37c-11.37,0-19.73-7.43-19.73-20,0-11.86,8.42-20.22,19.78-20.22s19.66,7.38,19.66,20C88.29,195,79.94,203.37,68.58,203.37Zm-.13-34c-7.31,0-12,5.53-12,13.7,0,8.42,4.79,14,12.28,14,7.32,0,12.11-5.59,12.11-13.76C80.8,174.93,76,169.4,68.45,169.4Z"/>
          <path class="cls-1" d="M119.08,203.37c-9.84,0-16-5.47-16-15.48V164.06h7.49v22.85c0,6.33,2.76,9.89,8.73,9.89,5.34,0,8.35-3,8.35-9.59V164.06h7.43v23.15C135.11,197.66,129.28,203.37,119.08,203.37Z"/>
          <path class="cls-1" d="M178.73,164.06h7.13v38.76h-8l-18.37-28.26v27.89h-7.13V164.06h8.18L178.73,192Z"/>
          <path class="cls-1" d="M215.86,202.45H203.31V164.06h13c13.07,0,20.69,7.49,20.69,18.92C237,194.83,229.5,202.45,215.86,202.45Zm.06-32.07h-5.1v25.74h5.46c8.1,0,13.27-4.24,13.27-12.77S224.7,170.38,215.92,170.38Z"/>
          <path class="cls-1" d="M271,191.94c0-3.19-2.89-4.36-8.54-5.89s-11.92-4-11.92-11.55c0-6.82,5.23-11.37,13.77-11.37a26.15,26.15,0,0,1,13.2,3.38l-1.84,6.33a23.35,23.35,0,0,0-11.31-3.32c-4.48,0-6.45,1.91-6.45,4.55,0,3.13,3.44,4.36,8.73,5.77,5.77,1.6,11.72,4.24,11.72,11.55,0,7-5.59,12-14.62,12a27.46,27.46,0,0,1-13.81-3.56l1.72-6.45A23.39,23.39,0,0,0,263.84,197C268,197,271,195,271,191.94Z"/>
          <path class="cls-1" d="M310.16,170.63v31.82h-7.43V170.63H289.9v-6.57H323v6.57Z"/>
          <path class="cls-1" d="M354.6,203.37c-11.36,0-19.73-7.43-19.73-20,0-11.86,8.43-20.22,19.79-20.22s19.66,7.38,19.66,20C374.32,195,366,203.37,354.6,203.37Zm-.13-34c-7.3,0-12,5.53-12,13.7,0,8.42,4.8,14,12.29,14,7.31,0,12.11-5.59,12.11-13.76C366.83,174.93,362,169.4,354.47,169.4Z"/>
          <path class="cls-1" d="M406.7,203.37c-11.36,0-19.73-7.43-19.73-20,0-11.86,8.43-20.22,19.79-20.22s19.66,7.38,19.66,20C426.42,195,418.07,203.37,406.7,203.37Zm-.13-34c-7.3,0-12,5.53-12,13.7,0,8.42,4.79,14,12.28,14,7.32,0,12.11-5.59,12.11-13.76C418.93,174.93,414.08,169.4,406.57,169.4Z"/>
          <path class="cls-1" d="M458.55,170.63v31.82h-7.43V170.63H438.29v-6.57H471.4v6.57Z"/>
          <path class="cls-1" d="M511,202.45V186.36H492.78v16.09h-7.49V164.06h7.49v15.78H511V164.06h7.43v38.39Z"/>
        </g>
        <path class="cls-2" d="M264.78,0a64.09,64.09,0,1,0,64.09,64.09A64.08,64.08,0,0,0,264.78,0ZM244.2,113.76a49.34,49.34,0,0,1-17.76-11.33l-3.53-4c-1-1.43-2.13-2.83-3.12-4.3s-1.78-3.06-2.6-4.62-1.47-3.21-2.09-4.86a44.52,44.52,0,0,1-2.53-20.58A64.8,64.8,0,0,0,218,83.47a56.66,56.66,0,0,0,27.4,27.4,63.84,63.84,0,0,0,19.38,5.42A44.52,44.52,0,0,1,244.2,113.76Zm37.51-23.42A9.14,9.14,0,0,1,272.85,82a9,9,0,0,1,6-9.15,1,1,0,0,0,.73-1V67a1,1,0,0,0-1-1H251a1,1,0,0,0-1,1v4.81a1.05,1.05,0,0,0,.73,1,9,9,0,0,1-3.13,17.51A9.13,9.13,0,0,1,238.72,82a9,9,0,0,1,6-9.15,1,1,0,0,0,.73-1V56.34a1.05,1.05,0,0,0-.73-1,9,9,0,0,1,3.12-17.51,9.14,9.14,0,0,1,8.86,8.35,9,9,0,0,1-6,9.16,1,1,0,0,0-.73,1V61a1,1,0,0,0,1,1h27.55a1,1,0,0,0,1-1V56.34a1.05,1.05,0,0,0-.73-1A9,9,0,0,1,282,37.84a9.12,9.12,0,0,1,8.85,8.36,9,9,0,0,1-6,9.15,1,1,0,0,0-.73,1V71.84a1.05,1.05,0,0,0,.73,1,9,9,0,0,1-3.12,17.51Zm29.84-45.63a56.66,56.66,0,0,0-27.4-27.4,63.77,63.77,0,0,0-19.37-5.42,44.48,44.48,0,0,1,20.57,2.53,49.17,49.17,0,0,1,17.76,11.33l3.54,4c1,1.43,2.13,2.83,3.11,4.3s1.79,3.06,2.61,4.62,1.47,3.22,2.08,4.86A44.39,44.39,0,0,1,317,64.09,64.22,64.22,0,0,0,311.55,44.71Z"/>
      </g>
    </g>
  </g>
</svg>
