
<svg xmlns="http://www.w3.org/2000/svg" xmlns:xlink="http://www.w3.org/1999/xlink" viewBox="0 0 140.1 64.81" width="140" height="65"><defs><style>.cls-1{fill:url(#linear-gradient);}.cls-2{fill:url(#linear-gradient-2);}.cls-3{fill:url(#linear-gradient-3);}.cls-4{fill:url(#linear-gradient-4);}.cls-5{fill:url(#linear-gradient-5);}.cls-6{fill:url(#linear-gradient-6);}.cls-7{fill:url(#linear-gradient-7);}.cls-8{fill:url(#linear-gradient-8);}.cls-9{fill:url(#linear-gradient-9);}.cls-10{fill:url(#linear-gradient-10);}.cls-11{fill:url(#linear-gradient-11);}.cls-12{fill:url(#linear-gradient-12);}.cls-13{fill:url(#linear-gradient-13);}</style><linearGradient id="linear-gradient" x1="-1.12" y1="58.34" x2="171.99" y2="56.97" gradientUnits="userSpaceOnUse"><stop offset="0" stop-color="#cb880d"/><stop offset="0.21" stop-color="#c6810d"/><stop offset="0.51" stop-color="#b86e0d"/><stop offset="0.66" stop-color="#b1650d"/><stop offset="0.89" stop-color="#9d4e0c"/><stop offset="1" stop-color="#91410c"/></linearGradient><linearGradient id="linear-gradient-2" x1="-1.12" y1="58.44" x2="171.99" y2="57.07" xlink:href="#linear-gradient"/><linearGradient id="linear-gradient-3" x1="-1.12" y1="58.54" x2="172" y2="57.17" xlink:href="#linear-gradient"/><linearGradient id="linear-gradient-4" x1="-1.12" y1="58.7" x2="172" y2="57.33" xlink:href="#linear-gradient"/><linearGradient id="linear-gradient-5" x1="-1.12" y1="58.82" x2="172" y2="57.45" xlink:href="#linear-gradient"/><linearGradient id="linear-gradient-6" x1="-1.12" y1="59.28" x2="172" y2="57.91" xlink:href="#linear-gradient"/><linearGradient id="linear-gradient-7" x1="-1.12" y1="59.09" x2="172" y2="57.72" xlink:href="#linear-gradient"/><linearGradient id="linear-gradient-8" x1="-1.12" y1="59.22" x2="172" y2="57.85" xlink:href="#linear-gradient"/><linearGradient id="linear-gradient-9" x1="-1.12" y1="59.33" x2="172" y2="57.96" xlink:href="#linear-gradient"/><linearGradient id="linear-gradient-10" x1="53.79" y1="20.54" x2="86.31" y2="20.54" gradientUnits="userSpaceOnUse"><stop offset="0" stop-color="#cb9400"/><stop offset="0.24" stop-color="#c78d02"/><stop offset="0.59" stop-color="#be7a09"/><stop offset="0.76" stop-color="#b86e0d"/><stop offset="0.82" stop-color="#b2670d" stop-opacity="0.98"/><stop offset="0.92" stop-color="#a1530c" stop-opacity="0.94"/><stop offset="1" stop-color="#91410c" stop-opacity="0.9"/></linearGradient><linearGradient id="linear-gradient-11" x1="68.38" y1="5.5" x2="71.72" y2="5.5" xlink:href="#linear-gradient-10"/><linearGradient id="linear-gradient-12" x1="60.8" y1="15.21" x2="79.3" y2="15.21" xlink:href="#linear-gradient-10"/><linearGradient id="linear-gradient-13" x1="66.67" y1="25.73" x2="73.44" y2="25.73" xlink:href="#linear-gradient-10"/></defs><title>Asset 112</title><g id="Layer_2" data-name="Layer 2"><g id="Layer_1-2" data-name="Layer 1"><path class="cls-1" d="M8.94,61.62H2.53V52.41H0V64.16H11.74S12,61.62,8.94,61.62Z"/><rect class="cls-2" x="16.61" y="52.42" width="2.54" height="11.74"/><path class="cls-3" d="M33.38,52.42H26.47a2.33,2.33,0,0,0-1.71.71,2.29,2.29,0,0,0-.7,1.71v6.91a2.39,2.39,0,0,0,2.41,2.41h6.91a2.33,2.33,0,0,0,1.7-.71,2.29,2.29,0,0,0,.71-1.7V54.84a2.42,2.42,0,0,0-2.41-2.42Zm-.15,9.2H26.58V55h6.65Z"/><path class="cls-4" d="M50.67,60.25l-6.56-7.83H41.5V64.16H44V56.3s3.56,4.25,5.3,6.31a4.13,4.13,0,0,0,3.91,1.55V52.42H50.67Z"/><path class="cls-5" d="M59.67,53.13a2.33,2.33,0,0,0-.7,1.71v6.91a2.36,2.36,0,0,0,.7,1.71,2.32,2.32,0,0,0,1.71.7h9.29s.26-2.54-2.8-2.54H61.5V55h9.17V52.42H61.38A2.33,2.33,0,0,0,59.67,53.13Z"/><path class="cls-6" d="M85.57,60.3a2.33,2.33,0,0,0,1.71-.71A2.3,2.3,0,0,0,88,57.88v-3a2.3,2.3,0,0,0-.72-1.7,2.33,2.33,0,0,0-1.71-.71h-9.3V64.16h2.52s0-2.71,0-3.85h3.36l3,3.51c1.3,1.55,4,.83,4,.83l-3.7-4.34Zm-.13-2.55H78.79V55h6.65Z"/><polygon class="cls-7" points="93.67 64.16 104.51 64.16 104.51 61.62 96.23 61.62 96.23 59.56 104.51 59.56 104.51 57.02 96.23 57.02 96.23 54.97 104.51 54.97 104.51 52.42 93.67 52.42 93.67 64.16"/><path class="cls-8" d="M119.28,52.42h-6.91a2.33,2.33,0,0,0-1.7.71,2.26,2.26,0,0,0-.71,1.71v2.31a2.26,2.26,0,0,0,.71,1.71,2.32,2.32,0,0,0,1.7.7h6.76v2.06H110v.13a2.41,2.41,0,0,0,2.41,2.41h6.91a2.33,2.33,0,0,0,1.7-.71,2.29,2.29,0,0,0,.71-1.7V59.43a2.29,2.29,0,0,0-.71-1.7,2.33,2.33,0,0,0-1.7-.71h-6.8V55h9.21v-.13a2.42,2.42,0,0,0-2.41-2.42Z"/><polygon class="cls-9" points="125.16 52.42 125.16 54.97 131.36 54.97 131.36 64.16 133.9 64.16 133.9 54.97 140.1 54.97 140.1 52.42 125.16 52.42"/><path class="cls-10" d="M85.12,18.31c-1.46-2.55-2.78-5.57-.37-9.14a1.56,1.56,0,0,0,0-1.71l-1.7-2.69c-4.43.26-5.8-1.74-8-3.22a9.73,9.73,0,0,0-5-1.55,8.47,8.47,0,0,0-5,1.73c-2,1.51-3.77,3.29-8,3L55.33,7.46a1.54,1.54,0,0,0,0,1.71c2.42,3.57,1.09,6.59-.36,9.14a11,11,0,0,0,.07,10.1,2.17,2.17,0,0,1,1.34-1.33s.54,8.29,7.51,10.49a1.94,1.94,0,0,1,0-1.73s2,4.86,6.26,5.25a4.25,4.25,0,0,0,1-3.08,2.61,2.61,0,0,1,1,2c2.69-.9,4-4.12,4-4.12a2,2,0,0,1,0,1.73c7-2.2,7.51-10.49,7.51-10.49A2.14,2.14,0,0,1,85,28.41,11,11,0,0,0,85.12,18.31Zm-5.78,1.78a2.19,2.19,0,0,0-.21-2c-.68,1.52-.36,2.21.05,4.2A4.61,4.61,0,0,1,77,27.34a3.18,3.18,0,0,0-.1-1.83S75.27,31,70.31,31h-.52c-5,0-6.62-5.46-6.62-5.46a3.13,3.13,0,0,0-.11,1.83,4.61,4.61,0,0,1-2.14-5.09c.41-2,.74-2.68.06-4.2a2.16,2.16,0,0,0-.21,2c-3.18-2.4-3.6-6.24-1.38-9,2.93-3.62,4.56-5,4.61-6.7a2.94,2.94,0,0,1,1.57.83S66.38,2.53,70,2.53h.1a4.79,4.79,0,0,1,4.44,2.71,2.93,2.93,0,0,1,1.56-.83c.05,1.72,1.69,3.08,4.62,6.7C82.94,13.85,82.52,17.69,79.34,20.09Z"/><path class="cls-11" d="M70,6.85l.08.1.06-.1c.82-1.1,1.54-1.09,1.6-2a.83.83,0,0,0-.87-.84,1,1,0,0,0-.8.54,1,1,0,0,0-.79-.54.84.84,0,0,0-.88.84C68.44,5.76,69.16,5.75,70,6.85Z"/><path class="cls-12" d="M73.24,7.1a3.83,3.83,0,0,0-3.18,2.61h0A3.82,3.82,0,0,0,66.86,7.1c-.91,0-3,.89-5.25,3.84s.58,4.67,1.44,5.73,2,2,1.53,3.72.54,2.92,2.28,2.93a2.84,2.84,0,0,0,1.75-.46,2.35,2.35,0,0,0,.82-2.22,1.86,1.86,0,0,0-.57-1c-.82-.77-1.56-.59-2.3-1.11a1,1,0,0,1-.17-1.48l.4-.45a7.53,7.53,0,0,0,3.2.8h.12a7.53,7.53,0,0,0,3.2-.8l.4.45a1,1,0,0,1-.17,1.48c-.74.52-1.48.34-2.29,1.11a1.94,1.94,0,0,0-.58,1,2.35,2.35,0,0,0,.83,2.22,2.81,2.81,0,0,0,1.74.46c1.74,0,2.79-1.18,2.28-2.93s.67-2.66,1.53-3.72,3.6-2.85,1.44-5.73S74.15,7.07,73.24,7.1Zm-5.46,6.82a3.63,3.63,0,0,0-1.92-.22,1.51,1.51,0,0,1-1.75-.62.94.94,0,0,0-1.2-.24c-.11.05-.22-.07-.15-.16a4,4,0,0,1,1.68-1.46,1,1,0,0,1,.69,0l1.71.6a1,1,0,0,1,.38.24,5.15,5.15,0,0,1,.89,1.53A.25.25,0,0,1,67.78,13.92Zm9.41-1.08a.92.92,0,0,0-1.19.24,1.52,1.52,0,0,1-1.75.62,3.65,3.65,0,0,0-1.93.22.25.25,0,0,1-.32-.33,5.11,5.11,0,0,1,.88-1.53,1,1,0,0,1,.38-.24l1.72-.6a.94.94,0,0,1,.68,0,3.9,3.9,0,0,1,1.68,1.46C77.41,12.77,77.3,12.89,77.19,12.84Z"/><path class="cls-13" d="M72.44,24.3a6.46,6.46,0,0,0-2.58-.37,5.68,5.68,0,0,0-2.2.37,1.47,1.47,0,0,0-1,1.29,1.78,1.78,0,0,0,.64,1.14,2.2,2.2,0,0,0,1.31.8,1.49,1.49,0,0,0,.9-.29,1,1,0,0,1,1.06,0,1.66,1.66,0,0,0,.9.29,2.2,2.2,0,0,0,1.31-.8,1.85,1.85,0,0,0,.65-1.14A1.52,1.52,0,0,0,72.44,24.3Z"/></g></g></svg>