<svg xmlns="http://www.w3.org/2000/svg" xmlns:xlink="http://www.w3.org/1999/xlink" width="214.9362" height="69.05041" viewBox="0 0 214.9362 69.05041">
  <defs>
    <style>
      .aa01669e-fbdc-4a43-a426-30850e365169 {
        fill: #f3f4f6;
      }

      .f8fc2908-3574-498c-8b42-f6a077d39216 {
        fill: #BF38FC;
      }

      .b49a9b2e-c828-4cf4-936d-e1b0249ca596 {
        fill: none;
      }

      .f5d7872a-c8ba-4dd2-b7fd-9aec499a52f8 {
        fill: url(#b0a16dd2-18f3-40da-8865-992117632604);
      }

      .a497d0af-9d08-466d-9935-c1e4200b889e {
        fill: url(#f91d8027-ff2c-4dfa-9d16-7765bf723268);
      }

      .bf71e0ad-8f73-4749-b146-4d1f4454596d, .fa143593-a608-4d76-bce6-651babd4bb6f {
        opacity: 0.22;
      }

      .fa143593-a608-4d76-bce6-651babd4bb6f {
        fill: url(#b7020b01-f26c-4da6-b506-5827226ba109);
      }

      .a748fd94-f816-4e4f-8e43-f7b62e11356f {
        fill: url(#e012bba1-212b-4881-8572-cf155117f981);
      }

      .bf71e0ad-8f73-4749-b146-4d1f4454596d {
        fill: url(#a748afcc-7ab9-4a73-978d-035bf677dedc);
      }
    </style>
    <linearGradient id="b0a16dd2-18f3-40da-8865-992117632604" x1="15.92168" y1="61.02871" x2="15.92168" y2="0.00003" gradientUnits="userSpaceOnUse">
      <stop offset="0" stop-color="#c300d5"/>
      <stop offset="0.10849" stop-color="#be06d6"/>
      <stop offset="0.24641" stop-color="#b015d8"/>
      <stop offset="0.40027" stop-color="#982fdb"/>
      <stop offset="0.56569" stop-color="#7754e0"/>
      <stop offset="0.7404" stop-color="#4c82e7"/>
      <stop offset="0.92016" stop-color="#19bbee"/>
      <stop offset="1" stop-color="#00d6f2"/>
    </linearGradient>
    <linearGradient id="f91d8027-ff2c-4dfa-9d16-7765bf723268" x1="21.91053" y1="61.02869" x2="21.91053" y2="0.00001" xlink:href="#b0a16dd2-18f3-40da-8865-992117632604"/>
    <linearGradient id="b7020b01-f26c-4da6-b506-5827226ba109" x1="0.09785" y1="50.25325" x2="31.74551" y2="50.25325" gradientUnits="userSpaceOnUse">
      <stop offset="0.26892" stop-color="#fff"/>
      <stop offset="1" stop-color="#fff" stop-opacity="0.5"/>
    </linearGradient>
    <linearGradient id="e012bba1-212b-4881-8572-cf155117f981" x1="9.91028" y1="61.02869" x2="9.91028" y2="0.00001" xlink:href="#b0a16dd2-18f3-40da-8865-992117632604"/>
    <linearGradient id="a748afcc-7ab9-4a73-978d-035bf677dedc" x1="0.09785" y1="50.25671" x2="31.74551" y2="50.25671" xlink:href="#b7020b01-f26c-4da6-b506-5827226ba109"/>
  </defs>
  <g id="e9ecfc72-54dc-4040-9067-ee69675bb82e" data-name="Layer 2">
    <g id="e0616233-6260-4881-ad48-7ab4274d6651" data-name="Layer 1">
      <g>
        <g>
          <g>
            <path class="aa01669e-fbdc-4a43-a426-30850e365169" d="M70.74591,21.466a4.32808,4.32808,0,0,0-.92765-1.05522,7.213,7.213,0,0,0-1.3829-.90942,8.05178,8.05178,0,0,0-1.74594-.63677,8.29772,8.29772,0,0,0-1.98323-.23656,6.57175,6.57175,0,0,0-3.98358.98232,2.928,2.928,0,0,0-1.29141,2.4013,2.08382,2.08382,0,0,0,.45452,1.38254,3.48092,3.48092,0,0,0,1.2371.90942,7.81216,7.81216,0,0,0,1.801.56387q1.01766.20085,2.18261.34592a37.63841,37.63841,0,0,1,3.85711.69108,10.724,10.724,0,0,1,3.27391,1.32823,6.7936,6.7936,0,0,1,2.2741,2.34663,7.327,7.327,0,0,1,.85474,3.7474,7.29406,7.29406,0,0,1-.8726,3.67449,7.38483,7.38483,0,0,1-2.347,2.51029A10.63775,10.63775,0,0,1,68.727,40.96694a17.144,17.144,0,0,1-4.05722.47312,19.5303,19.5303,0,0,1-3.67412-.32768,11.57835,11.57835,0,0,1-3.12884-1.05485A8.78645,8.78645,0,0,1,55.35612,38.129,9.55294,9.55294,0,0,1,53.573,35.182l4.00218-2.07362a5.8593,5.8593,0,0,0,1.1642,1.81921,6.30509,6.30509,0,0,0,1.67377,1.255,8.091,8.091,0,0,0,2.0554.7279,10.87707,10.87707,0,0,0,2.2741.23619,11.66173,11.66173,0,0,0,2.18334-.20011,5.89975,5.89975,0,0,0,1.87314-.67286,3.98518,3.98518,0,0,0,1.31-1.18243,3.027,3.027,0,0,0,.491-1.76452,2.66389,2.66389,0,0,0-.43667-1.5462,3.65733,3.65733,0,0,0-1.23636-1.09167,7.11864,7.11864,0,0,0-1.87388-.70931,20.116,20.116,0,0,0-2.347-.40022,30.16977,30.16977,0,0,1-3.76562-.655,10.89091,10.89091,0,0,1-3.18315-1.29141,6.62864,6.62864,0,0,1-2.21979-2.23765,6.72625,6.72625,0,0,1-.83615-3.52906,6.23829,6.23829,0,0,1,.8726-3.3654,7.14541,7.14541,0,0,1,2.2927-2.29233,10.82487,10.82487,0,0,1,3.18314-1.32786,14.56577,14.56577,0,0,1,3.51121-.43667,18.73,18.73,0,0,1,2.96518.23656,11.51669,11.51669,0,0,1,2.80153.81866A9.00627,9.00627,0,0,1,72.747,17.0636a8.1223,8.1223,0,0,1,1.81883,2.43775Z"/>
            <path class="aa01669e-fbdc-4a43-a426-30850e365169" d="M106.58122,37.58332a12.16125,12.16125,0,0,1-4.4381,2.87443,16.36307,16.36307,0,0,1-11.35191-.21834,12.02581,12.02581,0,0,1-4.18369-2.96518,11.81578,11.81578,0,0,1-2.41916-4.20229,15.41117,15.41117,0,0,1,.01785-9.75066,12.265,12.265,0,0,1,2.47421-4.29305,12.45359,12.45359,0,0,1,4.22015-3.05631,14.33141,14.33141,0,0,1,6.00326-1.1642,13.22137,13.22137,0,0,1,5.00273.96409,13.048,13.048,0,0,1,4.34735,2.92911l-3.20175,3.09239a8.04181,8.04181,0,0,0-2.87368-1.81921,9.53278,9.53278,0,0,0-3.27465-.5821,9.29527,9.29527,0,0,0-3.96572.78221,7.82608,7.82608,0,0,0-4.31164,4.87552,10.6895,10.6895,0,0,0-.491,3.18314,10.16663,10.16663,0,0,0,.491,3.12922A7.99547,7.99547,0,0,0,90.173,34.12716,7.58992,7.58992,0,0,0,92.8838,36.11a9.74754,9.74754,0,0,0,4.02.74575,9.55821,9.55821,0,0,0,3.40186-.655,8.40941,8.40941,0,0,0,3.00163-1.92819Z"/>
            <path class="aa01669e-fbdc-4a43-a426-30850e365169" d="M130.30288,31.72585a8.75935,8.75935,0,0,0,3.05594-1.1616,6.88937,6.88937,0,0,0,1.98323-1.88764,7.42273,7.42273,0,0,0,1.07271-2.36,10.26591,10.26591,0,0,0,.32806-2.57724,8.79071,8.79071,0,0,0-.58248-3.15785,7.56816,7.56816,0,0,0-1.74667-2.687A8.74694,8.74694,0,0,0,131.54,16.02511a10.30918,10.30918,0,0,0-3.96572-.70782q-3.05631,0-6.05758-.01822-3.00163-.01787-6.05831-.01823V40.78506H120.261V19.82867h7.31328a5.0015,5.0015,0,0,1,1.946.34443,3.94716,3.94716,0,0,1,1.36431.92317,3.6553,3.6553,0,0,1,.80043,1.30406,4.45,4.45,0,0,1,0,2.97039,3.78493,3.78493,0,0,1-.78183,1.30368,3.73275,3.73275,0,0,1-1.36432.92356,5.13978,5.13978,0,0,1-1.96463.344H121.4144l7.51382,8.68783a12.01462,12.01462,0,0,0,9.0874,4.15522h0v-.32843Z"/>
            <path class="aa01669e-fbdc-4a43-a426-30850e365169" d="M147.80705,40.78506V15.31729h4.76617V40.78506Z"/>
            <path class="aa01669e-fbdc-4a43-a426-30850e365169" d="M176.55378,15.31729a13.23862,13.23862,0,0,1,3.4926.43667,7.93028,7.93028,0,0,1,2.76508,1.32786,6.25169,6.25169,0,0,1,1.83743,2.292,7.62221,7.62221,0,0,1,.67323,3.32895,5.47223,5.47223,0,0,1-.764,2.80152,5.35683,5.35683,0,0,1-2.54711,2.11044,4.62179,4.62179,0,0,1,1.89174,1.03663,6.84039,6.84039,0,0,1,1.2557,1.54656,6.59179,6.59179,0,0,1,.70894,1.67341,5.78307,5.78307,0,0,1,.2187,1.419A7.73068,7.73068,0,0,1,185.34,36.874a6.165,6.165,0,0,1-2.03754,2.31018,8.41941,8.41941,0,0,1-3.03808,1.2371,18.1662,18.1662,0,0,1-3.71057.36377H164.47434V15.31729ZM169.20405,25.5407h7.34973a4.59338,4.59338,0,0,0,3.12884-.81866,2.54313,2.54313,0,0,0,.87334-1.91,2.89467,2.89467,0,0,0-.20011-.98232,2.92657,2.92657,0,0,0-.65538-1.01877,3.65139,3.65139,0,0,0-1.23636-.80044,4.95375,4.95375,0,0,0-1.91033-.32731h-7.34973Zm0,10.733h7.34973a9.23055,9.23055,0,0,0,1.56442-.14431A5.78862,5.78862,0,0,0,179.664,35.641a3.439,3.439,0,0,0,1.1828-.92281,2.27266,2.27266,0,0,0,.47312-1.48371,2.52116,2.52116,0,0,0-.47312-1.51941,4.06286,4.06286,0,0,0-1.1828-1.08535,5.662,5.662,0,0,0-1.54582-.65129,6.25674,6.25674,0,0,0-1.56442-.21721h-7.34973Z"/>
            <path class="aa01669e-fbdc-4a43-a426-30850e365169" d="M214.9362,40.78506H195.87155V15.31729H214.9362V19.9741H200.63771v5.85784h13.78892v4.51138H200.63771v5.712H214.9362Z"/>
          </g>
          <g>
            <path class="f8fc2908-3574-498c-8b42-f6a077d39216" d="M106.89534,68.735V58.77551h2.16943l.03906,1.53809A2.92094,2.92094,0,0,1,110.327,58.943a3.68561,3.68561,0,0,1,1.89306-.4834,3.09445,3.09445,0,0,1,3.13575,2.03174,3.29846,3.29846,0,0,1,1.30175-1.47949,3.77036,3.77036,0,0,1,2.03174-.55225,3.34943,3.34943,0,0,1,2.6919,1.09473,4.7042,4.7042,0,0,1,.93652,3.14551V68.735h-2.26807v-5.6206q0-2.64331-2.03125-2.64307a2.03985,2.03985,0,0,0-1.686.74951,3.25618,3.25618,0,0,0-.60156,2.09034V68.735h-2.26807v-5.6206q0-2.64331-2.01172-2.64307a2.05081,2.05081,0,0,0-1.686.73975,3.213,3.213,0,0,0-.60157,2.08056V68.735Z"/>
            <path class="f8fc2908-3574-498c-8b42-f6a077d39216" d="M130.48274,69.05041a6.66277,6.66277,0,0,1-3.02735-.64062,4.62086,4.62086,0,0,1-1.9624-1.82471,5.45626,5.45626,0,0,1-.69043-2.80029,5.76819,5.76819,0,0,1,.64112-2.771,4.75227,4.75227,0,0,1,1.78466-1.87353,4.99465,4.99465,0,0,1,2.60352-.68067,4.758,4.758,0,0,1,2.44531.61133,4.16145,4.16145,0,0,1,1.61719,1.71582,5.59194,5.59194,0,0,1,.57227,2.60352,8.69931,8.69931,0,0,1-.05909.98633H127.0511a2.98,2.98,0,0,0,1.11426,2.10986,4.05992,4.05992,0,0,0,2.51464.71,7.63581,7.63581,0,0,0,3.35254-.769l.23682,1.7749a6.434,6.434,0,0,1-1.72559.62158A9.45291,9.45291,0,0,1,130.48274,69.05041Zm-.73-8.83545a2.53016,2.53016,0,0,0-1.82422.69043,3.23612,3.23612,0,0,0-.89746,1.95215h5.28564a1.81249,1.81249,0,0,0-.03955-.394,2.6575,2.6575,0,0,0-.80859-1.6665A2.47837,2.47837,0,0,0,129.75276,60.215Z"/>
            <path class="f8fc2908-3574-498c-8b42-f6a077d39216" d="M141.48713,69.05041a4.35885,4.35885,0,0,1-2.416-.68017,4.6843,4.6843,0,0,1-1.65674-1.87354,5.98242,5.98242,0,0,1-.60156-2.73193,5.59954,5.59954,0,0,1,.64111-2.6919,5.07493,5.07493,0,0,1,1.74512-1.90332,4.43045,4.43045,0,0,1,2.4458-.71,3.8974,3.8974,0,0,1,1.94238.49317,3.78856,3.78856,0,0,1,1.41016,1.38037V52.75989h2.26806V68.735h-2.189l-.03955-1.63671A3.801,3.801,0,0,1,141.48713,69.05041Zm.63086-2.03125a2.817,2.817,0,0,0,2.17969-.917,3.35841,3.35841,0,0,0,.83789-2.35693,3.32188,3.32188,0,0,0-.83789-2.34668,3.04743,3.04743,0,0,0-4.33887,0,3.32,3.32,0,0,0-.83838,2.34668,3.3565,3.3565,0,0,0,.83838,2.35693A2.7919,2.7919,0,0,0,142.118,67.01916Z"/>
            <path class="f8fc2908-3574-498c-8b42-f6a077d39216" d="M151.58479,56.46789a1.38215,1.38215,0,0,1-1.41992-1.41992,1.345,1.345,0,0,1,.40429-1.00586,1.51709,1.51709,0,0,1,2.041,0,1.36178,1.36178,0,0,1,.39453,1.00586,1.39451,1.39451,0,0,1-.39453,1.01563A1.36961,1.36961,0,0,1,151.58479,56.46789Zm-1.124,12.26709V58.77551h2.26806V68.735Z"/>
            <path class="f8fc2908-3574-498c-8b42-f6a077d39216" d="M159.96663,69.05041a4.35886,4.35886,0,0,1-2.416-.68017,4.68437,4.68437,0,0,1-1.65674-1.87354,5.98242,5.98242,0,0,1-.60156-2.73193,5.59966,5.59966,0,0,1,.64111-2.6919,5.07493,5.07493,0,0,1,1.74512-1.90332,4.43045,4.43045,0,0,1,2.4458-.71,3.8763,3.8763,0,0,1,1.97217.5127,3.83323,3.83323,0,0,1,1.41992,1.43994l.03955-1.63672h2.189V68.735h-2.189l-.03955-1.63671A3.801,3.801,0,0,1,159.96663,69.05041Zm.63085-2.03125a2.817,2.817,0,0,0,2.17969-.917,3.35837,3.35837,0,0,0,.83789-2.35693,3.32183,3.32183,0,0,0-.83789-2.34668,3.04742,3.04742,0,0,0-4.33886,0,3.32,3.32,0,0,0-.83838,2.34668,3.35645,3.35645,0,0,0,.83838,2.35693A2.79187,2.79187,0,0,0,160.59748,67.01916Z"/>
          </g>
        </g>
        <g>
          <path class="b49a9b2e-c828-4cf4-936d-e1b0249ca596" d="M17.76041,36.3866V28.29312a22.8647,22.8647,0,0,0-1.63069-8.04332l-.25034-.66121-.296.82188a22.94471,22.94471,0,0,0-1.57316,7.69082V36.3866h1.07732l-.21371,3.09812a5.35793,5.35793,0,0,1,2.0506-.00691l-.2196-3.09121Z"/>
          <path class="f5d7872a-c8ba-4dd2-b7fd-9aec499a52f8" d="M10.43184,45.07078c-.00218-.06332-.0096-.12526-.0096-.18914a5.49911,5.49911,0,0,1,4.45159-5.39692l.21371-3.09812H14.01022V28.10129a22.94471,22.94471,0,0,1,1.57316-7.69082l.296-.82188.25034.66121a22.8647,22.8647,0,0,1,1.63069,8.04332V36.3866H16.70483l.2196,3.09121a5.498,5.498,0,0,1,4.4967,5.40383c0,.06388-.00742.12582-.0096.18914a8.073,8.073,0,0,1,5.4851.39785L31.84337,36.35S23.6765,0,15.8842,0C8.092,0,0,36.35,0,36.35l4.94674,9.11864a8.07277,8.07277,0,0,1,5.4851-.39789Z"/>
          <path class="a497d0af-9d08-466d-9935-c1e4200b889e" d="M21.41153,45.07078c.00218-.06332.0096-.12526.0096-.18914a5.498,5.498,0,0,0-4.4967-5.40383L18.4555,61.02869l8.44113-15.56006a8.073,8.073,0,0,0-5.4851-.39785Z"/>
          <path class="fa143593-a608-4d76-bce6-651babd4bb6f" d="M21.41153,45.07078c.00218-.06332.0096-.12526.0096-.18914a5.498,5.498,0,0,0-4.4967-5.40383L18.4555,61.02869l8.44113-15.56006a8.073,8.073,0,0,0-5.4851-.39785Z"/>
          <path class="a748fd94-f816-4e4f-8e43-f7b62e11356f" d="M14.87383,39.48472a5.49911,5.49911,0,0,0-4.45159,5.39692c0,.06388.00742.12582.0096.18914a8.07277,8.07277,0,0,0-5.4851.39789l8.44108,15.56Z"/>
          <path class="bf71e0ad-8f73-4749-b146-4d1f4454596d" d="M14.87383,39.48472a5.49911,5.49911,0,0,0-4.45159,5.39692c0,.06388.00742.12582.0096.18914a8.07277,8.07277,0,0,0-5.4851.39789l8.44108,15.56Z"/>
        </g>
      </g>
    </g>
  </g>
</svg>
