<svg xmlns="http://www.w3.org/2000/svg" xmlns:xlink="http://www.w3.org/1999/xlink" viewBox="0 0 32 62">
  <defs>
    <linearGradient id="g1" x1="15.92168" y1="61.02871" x2="15.92168" y2="0.00003" gradientUnits="userSpaceOnUse">
      <stop offset="0" stop-color="#c300d5"/>
      <stop offset="0.108" stop-color="#be06d6"/>
      <stop offset="0.246" stop-color="#b015d8"/>
      <stop offset="0.4" stop-color="#982fdb"/>
      <stop offset="0.566" stop-color="#7754e0"/>
      <stop offset="0.74" stop-color="#4c82e7"/>
      <stop offset="0.92" stop-color="#19bbee"/>
      <stop offset="1" stop-color="#00d6f2"/>
    </linearGradient>
    <linearGradient id="g2" x1="21.91053" y1="61.02869" x2="21.91053" y2="0.00001" xlink:href="#g1"/>
    <linearGradient id="g3" x1="9.91028" y1="61.02869" x2="9.91028" y2="0.00001" xlink:href="#g1"/>
  </defs>
  <path fill="url(#g1)" d="M10.43184,45.07078c-.00218-.06332-.0096-.12526-.0096-.18914a5.49911,5.49911,0,0,1,4.45159-5.39692l.21371-3.09812H14.01022V28.10129a22.94471,22.94471,0,0,1,1.57316-7.69082l.296-.82188.25034.66121a22.8647,22.8647,0,0,1,1.63069,8.04332V36.3866H16.70483l.2196,3.09121a5.498,5.498,0,0,1,4.4967,5.40383c0,.06388-.00742.12582-.0096.18914a8.073,8.073,0,0,1,5.4851.39785L31.84337,36.35S23.6765,0,15.8842,0C8.092,0,0,36.35,0,36.35l4.94674,9.11864a8.07277,8.07277,0,0,1,5.4851-.39789Z"/>
  <path fill="url(#g2)" d="M21.41153,45.07078c.00218-.06332.0096-.12526.0096-.18914a5.498,5.498,0,0,0-4.4967-5.40383L18.4555,61.02869l8.44113-15.56006a8.073,8.073,0,0,0-5.4851-.39785Z"/>
  <path fill="url(#g3)" d="M14.87383,39.48472a5.49911,5.49911,0,0,0-4.45159,5.39692c0,.06388.00742.12582.0096.18914a8.07277,8.07277,0,0,0-5.4851.39789l8.44108,15.56Z"/>
</svg>
